<svg xmlns="http://www.w3.org/2000/svg" xml:space="preserve" fill-rule="evenodd" stroke-linejoin="round" stroke-miterlimit="2" clip-rule="evenodd" viewBox="0 0 512 512"><g fill-rule="nonzero"><path fill="#929e48" d="m386.175 202.47-67.852 3.938 33.952 136.854h.026l33.874-140.791"/><path fill="#6f7434" d="m431.497 236.997-23.912 1.278 11.97 48.295h.026l11.916-49.573"/><path fill="#b8cf5d" d="M174.532 95.372c2.138 16.767-4.955 33.613-18.619 43.81l23.809 53.457-16.664 7.433-23.626-53.015c-3.834.99-7.745 1.538-11.683 1.538-.808 0-1.59-.078-2.398-.104l-13.535 53.98 89.862 255.376h.08l92.209-381.59Z"/></g><g transform="translate(-996.938 -368.83) scale(2.60773)"><circle cx="431.28" cy="180.31" r="14.6" fill="#fff"/><path fill="url(#a)" fill-rule="nonzero" d="m451.22 215.31-9.13-20.5c6.64-4.95 9.23-14 5.73-21.87-4.06-9.12-14.79-13.23-23.9-9.17-4.42 1.97-7.8 5.54-9.54 10.05-1.73 4.51-1.6 9.43.37 13.85 1.97 4.42 5.54 7.8 10.05 9.53 2.11.81 4.3 1.21 6.49 1.21 1.51 0 3.01-.21 4.48-.59l9.06 20.33 6.39-2.85zm-23.92-24.64a10.99 10.99 0 0 1-6.16-5.85 10.97 10.97 0 0 1-.22-8.49 10.99 10.99 0 0 1 5.85-6.16c1.46-.65 2.99-.96 4.5-.96 4.25 0 8.32 2.46 10.16 6.58 2.49 5.59-.03 12.17-5.62 14.66a10.993 10.993 0 0 1-8.5.22z"/></g><defs><linearGradient id="a" x1="0" x2="1" y1="0" y2="0" gradientTransform="rotate(-114.18 292.75 -37.267) scale(42.41)" gradientUnits="userSpaceOnUse"><stop offset="0" stop-color="#be1622"/><stop offset="1" stop-color="#e30613"/></linearGradient></defs></svg>