<svg xmlns="http://www.w3.org/2000/svg" xml:space="preserve" fill-rule="evenodd" stroke-linejoin="round" stroke-miterlimit="2" clip-rule="evenodd" viewBox="0 0 512 512"><g fill-rule="nonzero"><path fill="#929e48" d="m418.25 189.281-84.571 4.908 42.318 170.574h.033l42.22-175.482"/><path fill="#6f7434" d="m474.74 232.315-29.805 1.592 14.92 60.195h.032l14.853-61.787"/><path fill="#b8cf5d" d="M154.459 55.793c2.665 20.899-6.176 41.896-23.207 54.604l29.675 66.63-20.77 9.264-29.447-66.078c-4.778 1.235-9.653 1.918-14.561 1.918-1.008 0-1.983-.098-2.99-.13l-16.87 67.28 112.005 318.3h.098l114.93-475.613-148.863 23.825Z"/></g><g transform="translate(-1305.66 -522.788) scale(3.25027)"><circle cx="431.28" cy="180.31" r="14.6" fill="#fff"/><path fill="url(#a)" fill-rule="nonzero" d="m451.22 215.31-9.13-20.5c6.64-4.95 9.23-14 5.73-21.87-4.06-9.12-14.79-13.23-23.9-9.17-4.42 1.97-7.8 5.54-9.54 10.05-1.73 4.51-1.6 9.43.37 13.85 1.97 4.42 5.54 7.8 10.05 9.53 2.11.81 4.3 1.21 6.49 1.21 1.51 0 3.01-.21 4.48-.59l9.06 20.33 6.39-2.85v.01Zm-23.92-24.64a10.99 10.99 0 0 1-6.16-5.85 10.97 10.97 0 0 1-.22-8.49 10.99 10.99 0 0 1 5.85-6.16c1.46-.65 2.99-.96 4.5-.96 4.25 0 8.32 2.46 10.16 6.58 2.49 5.59-.03 12.17-5.62 14.66a10.993 10.993 0 0 1-8.5.22h-.01Z"/></g><defs><linearGradient id="a" x1="0" x2="1" y1="0" y2="0" gradientTransform="rotate(-114.18 292.75 -37.267) scale(42.41)" gradientUnits="userSpaceOnUse"><stop offset="0" stop-color="#be1622"/><stop offset="1" stop-color="#e30613"/></linearGradient></defs></svg>