<svg width="275" height="265" viewBox="0 0 275 265" fill="none" xmlns="http://www.w3.org/2000/svg">
<g filter="url(#filter0_d_9_104)">
<path d="M4.33998 178.05C4.33998 170.18 10.7 165.32 18.57 165.32C26.44 165.32 32.69 170.18 32.69 178.05V193.18C32.69 201.11 26.33 205.96 18.57 205.96C10.81 205.96 4.33998 201.1 4.33998 193.18V178.05ZM11.88 192.51C11.88 196.97 14.84 199.32 18.58 199.32C22.32 199.32 25.17 196.98 25.17 192.51V178.78C25.17 174.26 22.21 171.91 18.58 171.91C14.95 171.91 11.88 174.25 11.88 178.78V192.51Z" fill="#1B181C"/>
<path d="M48.49 178.89C50.22 177.05 53.24 175.6 55.97 175.6C63 175.6 65.68 179.51 65.68 186.88L65.62 193.97C65.62 201.28 61.43 205.75 54.35 205.75C52.56 205.75 50.27 205.36 48.82 204.86V213.57H41.68V176.17H47.88L48.49 178.91V178.89ZM58.48 187.43C58.48 183.63 57.36 181.96 54.29 181.96C52.17 181.96 50.1 183.41 48.82 184.97V198.64C50.1 199.25 51.89 199.53 53.62 199.53C56.86 199.53 58.42 197.41 58.48 193.33V187.41V187.43Z" fill="#1B181C"/>
<path d="M86.72 205.74C79.18 205.74 74.55 201.27 74.55 193.96V187.43C74.55 180.06 79.18 175.6 86.72 175.6C94.26 175.6 98.83 180.07 98.83 187.43V192.96H81.75V193.74C81.75 197.87 83.59 199.66 86.83 199.66C90.23 199.66 92.63 198.66 95.31 197.2L97.99 202.17C94.92 204.29 91.4 205.74 86.71 205.74H86.72ZM91.69 188.1V187.65C91.69 183.69 90.07 181.68 86.72 181.68C83.37 181.68 81.64 183.58 81.64 187.65V188.1H91.69Z" fill="#1B181C"/>
<path d="M107.81 176.15H114.01L114.62 178.89C116.41 177.05 119.42 175.6 122.21 175.6C128.96 175.6 131.53 179.51 131.53 186.21V205.19H124.39V186.94C124.39 183.54 123.39 181.97 120.31 181.97C118.3 181.97 116.24 183.37 114.95 184.98V205.19H107.75L107.81 176.17V176.15Z" fill="#1B181C"/>
<path d="M160.39 196.02C156.43 196.63 152.41 196.63 148.44 196.02L145.82 205.17H137.56L150.96 166.1H157.83L171.34 205.17H163.13L160.39 196.02ZM150.06 190.16C152.96 190.72 155.81 190.72 158.71 190.16L154.36 175.15L150.06 190.16V190.16Z" fill="#1B181C"/>
<path d="M177.63 181.9H174.84V176.15H177.97L179.25 170.62H184.83V176.15H192.48V181.9H184.83L184.77 194.9C184.77 198.42 185.55 199.76 188.51 199.76C189.51 199.76 190.97 199.59 191.86 199.37L192.92 205.01C191.36 205.46 188.84 205.79 187.11 205.79C179.97 205.79 177.62 202.83 177.62 195.46V181.9H177.63Z" fill="#1B181C"/>
<path d="M199.39 205.18V163.32H206.53V205.18H199.39Z" fill="#1B181C"/>
<path d="M238.91 205.18H232.88L232.49 202.45C230.82 204.35 227.58 205.74 224.4 205.74C218.82 205.74 214.86 203.17 214.86 197.37C214.86 191.17 218.66 188.89 225.35 188.89C227.47 188.89 229.65 189.17 231.77 189.67V186.71C231.77 182.97 229.98 181.8 226.47 181.8C222.96 181.8 220.67 182.64 218.6 183.7L216.42 178.62C219.1 177.11 223.12 175.61 227.81 175.61C235.35 175.61 238.97 179.35 238.92 186.33V205.2L238.91 205.18ZM226.02 200.16C228.48 200.16 230.54 198.82 231.77 196.98V194.3C229.93 193.85 228.14 193.69 226.3 193.69C223.57 193.69 222.11 194.3 222.11 196.93C222.11 199.33 223.62 200.17 226.02 200.17V200.16Z" fill="#1B181C"/>
<path d="M258.27 199.99C261.45 199.99 263.29 198.87 263.29 197.03C263.29 194.52 261.06 194.13 256.87 193.35C252.52 192.57 248 191.34 248 184.25C248 179.06 251.46 175.6 259 175.6C263.63 175.6 266.7 176.88 269.88 179.12L267.37 183.81C264.63 182.3 262.46 181.35 259.22 181.35C256.32 181.35 255.2 182.41 255.2 184.08C255.2 186.54 257.21 186.82 260.84 187.43C265.36 188.27 270.44 189.33 270.44 196.75C270.44 202.11 266.2 205.74 258.66 205.74C253.97 205.74 250.12 204.34 247.05 202.28L249.56 197.31C252.24 198.87 254.86 199.99 258.27 199.99V199.99Z" fill="#1B181C"/>
<path d="M41.66 250.02V219.28H52.24C58.04 219.28 61.64 223.01 61.64 228.94V240.36C61.64 246.29 58.04 250.02 52.24 250.02H41.66V250.02ZM45.35 246.55H52.24C55.93 246.55 57.95 244.22 57.95 239.79V229.51C57.95 225.12 55.93 222.75 52.24 222.75H45.35V246.55V246.55Z" fill="#1B181C"/>
<path d="M71.16 223.14C69.71 223.14 68.66 222.26 68.66 220.72C68.66 219.18 69.71 218.26 71.16 218.26C72.61 218.26 73.71 219.18 73.71 220.72C73.71 222.26 72.66 223.14 71.16 223.14ZM73 227.18V250.02H69.49V227.18H73Z" fill="#1B181C"/>
<path d="M88.42 247.38C91.89 247.38 93.56 245.58 93.56 243.69C93.56 241.49 92.02 240.57 88.64 240C84.56 239.34 80.73 238.59 80.73 233.15C80.73 229.5 83.23 226.74 88.64 226.74C92.15 226.74 94.48 227.88 96.68 229.46L95.23 231.92C93.34 230.73 91.41 229.81 88.69 229.81C85.4 229.81 84.25 231.26 84.25 233.15C84.25 235.96 86.4 236.36 89.52 236.84C93.47 237.46 96.99 238.42 97.03 243.6C97.07 247.29 94 250.45 88.51 250.45C84.82 250.45 81.88 249.13 79.99 247.73L81.44 245.23C83.2 246.42 85.57 247.38 88.42 247.38V247.38Z" fill="#1B181C"/>
<path d="M112.83 247.25C115.68 247.25 117.48 246.37 119.24 245.19L120.73 247.69C118.89 249.14 116.47 250.46 112.78 250.46C107.25 250.46 103.86 247.08 103.86 241.41V235.79C103.86 230.12 107.24 226.74 112.78 226.74C116.56 226.74 118.58 227.93 120.73 229.55L119.19 232.01C117.3 230.74 115.81 229.9 112.82 229.9C109.31 229.9 107.37 232.1 107.37 236.31V240.88C107.37 245.1 109.3 247.25 112.82 247.25H112.83Z" fill="#1B181C"/>
<path d="M128.07 235.79C128.07 230.12 131.5 226.74 136.99 226.74C142.48 226.74 145.9 230.12 145.9 235.79V241.46C145.9 247.08 142.48 250.46 136.99 250.46C131.5 250.46 128.07 247.04 128.07 241.46V235.79ZM131.58 240.93C131.58 245.1 133.51 247.25 136.98 247.25C140.45 247.25 142.38 245.1 142.38 240.93V236.28C142.38 232.11 140.49 229.96 136.98 229.96C133.47 229.96 131.58 232.11 131.58 236.28V240.93Z" fill="#1B181C"/>
<path d="M150.28 227.18H154.06L160.25 245.89L166.44 227.18H170.13L162.01 250.02H158.45L150.28 227.18V227.18Z" fill="#1B181C"/>
<path d="M183.57 250.45C178.08 250.45 174.65 247.07 174.65 241.4V235.78C174.65 230.11 178.08 226.73 183.57 226.73C189.06 226.73 192.48 230.11 192.48 235.78V239.64H178.16V240.96C178.16 245.18 180.14 247.28 183.61 247.28C186.46 247.28 188.75 246.36 190.5 245.17L191.99 247.67C190.15 249.12 187.25 250.44 183.56 250.44L183.57 250.45ZM188.97 236.84V236.23C188.97 232.1 187.08 229.95 183.57 229.95C180.06 229.95 178.17 232.06 178.17 236.23V236.84H188.97V236.84Z" fill="#1B181C"/>
<path d="M200.47 227.18H203.46L203.85 230.03C205.56 227.92 207.98 226.74 210.53 226.74L210.79 230.03C207.98 230.03 205.56 231.52 203.98 233.72V250.01H200.47V227.17V227.18Z" fill="#1B181C"/>
<path d="M222.73 249.27L214.52 227.18H218.3L224.49 244.97L230.68 227.18H234.37L226.25 249.09H226.21L223.49 256.69L219.85 256.65L222.75 249.27H222.73Z" fill="#1B181C"/>
<g style="mix-blend-mode:overlay">
<path d="M218.39 57.08L192.37 58.59L205.39 111.07H205.4L218.39 57.08Z" fill="#929E48"/>
</g>
<g style="mix-blend-mode:overlay">
<path d="M235.77 70.32L226.6 70.81L231.19 89.33H231.2L235.77 70.32Z" fill="#6F7434"/>
</g>
<g style="mix-blend-mode:overlay">
<path d="M137.23 16.01C138.05 22.44 135.33 28.9 130.09 32.81L139.22 53.31L132.83 56.16L123.77 35.83C122.3 36.21 120.8 36.42 119.29 36.42C118.98 36.42 118.68 36.39 118.37 36.38L113.18 57.08L147.64 155.01H147.67L183.03 8.67999L137.23 16.01V16.01Z" fill="#B8CF5D"/>
</g>
<path d="M119.28 32.91C127.343 32.91 133.88 26.3734 133.88 18.31C133.88 10.2467 127.343 3.71002 119.28 3.71002C111.217 3.71002 104.68 10.2467 104.68 18.31C104.68 26.3734 111.217 32.91 119.28 32.91Z" fill="white"/>
<path d="M139.22 53.31L130.09 32.81C136.73 27.86 139.32 18.81 135.82 10.94C131.76 1.81999 121.03 -2.29 111.92 1.77C107.5 3.74 104.12 7.31 102.38 11.82C100.65 16.33 100.78 21.25 102.75 25.67C104.72 30.09 108.29 33.47 112.8 35.2C114.91 36.01 117.1 36.41 119.29 36.41C120.8 36.41 122.3 36.2 123.77 35.82L132.83 56.15L139.22 53.3V53.31ZM115.3 28.67C112.53 27.61 110.34 25.53 109.14 22.82C107.93 20.11 107.85 17.09 108.92 14.33C109.98 11.56 112.06 9.36999 114.77 8.16999C116.23 7.51999 117.76 7.21 119.27 7.21C123.52 7.21 127.59 9.66999 129.43 13.79C131.92 19.38 129.4 25.96 123.81 28.45C121.1 29.66 118.09 29.74 115.31 28.67H115.3Z" fill="url(#paint0_linear_9_104)"/>
</g>
<defs>
<filter id="filter0_d_9_104" x="0.339981" y="0.204468" width="274.1" height="264.486" filterUnits="userSpaceOnUse" color-interpolation-filters="sRGB">
<feFlood flood-opacity="0" result="BackgroundImageFix"/>
<feColorMatrix in="SourceAlpha" type="matrix" values="0 0 0 0 0 0 0 0 0 0 0 0 0 0 0 0 0 0 127 0" result="hardAlpha"/>
<feOffset dy="4"/>
<feGaussianBlur stdDeviation="2"/>
<feComposite in2="hardAlpha" operator="out"/>
<feColorMatrix type="matrix" values="0 0 0 0 0 0 0 0 0 0 0 0 0 0 0 0 0 0 0.25 0"/>
<feBlend mode="normal" in2="BackgroundImageFix" result="effect1_dropShadow_9_104"/>
<feBlend mode="normal" in="SourceGraphic" in2="effect1_dropShadow_9_104" result="shape"/>
</filter>
<linearGradient id="paint0_linear_9_104" x1="134.65" y1="52.54" x2="117.28" y2="13.85" gradientUnits="userSpaceOnUse">
<stop stop-color="#BE1622"/>
<stop offset="1" stop-color="#E30613"/>
</linearGradient>
</defs>
</svg>
