<svg width="141" height="162" viewBox="0 0 141 162" fill="none" xmlns="http://www.w3.org/2000/svg">
<g filter="url(#filter0_d_1_21)">
<g style="mix-blend-mode:overlay">
<path d="M93.01 56.7L106.04 109.18L106.05 109.19L119.04 55.19L93.01 56.7Z" fill="#919D47"/>
</g>
<g style="mix-blend-mode:overlay">
<path d="M127.24 68.93L131.84 87.44L136.42 68.43L127.24 68.93Z" fill="#6F7434"/>
</g>
<g style="mix-blend-mode:overlay">
<path d="M44.66 153.13H44.69L80.05 6.78999L19.93 16.42L10.2 55.19L44.66 153.13Z" fill="#B8CF5B"/>
</g>
<path d="M35.2 14.4C36.08 26.88 22.73 55.34 22.73 55.34C22.73 55.34 5.52998 29.03 4.64998 16.54C4.50947 14.5341 4.76542 12.5201 5.40325 10.6131C6.04107 8.70605 7.04827 6.94333 8.36733 5.42555C9.68638 3.90778 11.2915 2.66467 13.091 1.76721C14.8904 0.869755 16.8491 0.335524 18.855 0.195009C20.8609 0.0544948 22.8749 0.310452 24.7819 0.948275C26.6889 1.5861 28.4516 2.59328 29.9694 3.91234C31.4872 5.2314 32.7303 6.83648 33.6278 8.63596C34.5253 10.4354 35.0595 12.3941 35.2 14.4V14.4Z" fill="url(#paint0_linear_1_21)"/>
<path d="M19.99 24.47C24.4856 24.47 28.13 20.8256 28.13 16.33C28.13 11.8344 24.4856 8.19 19.99 8.19C15.4944 8.19 11.85 11.8344 11.85 16.33C11.85 20.8256 15.4944 24.47 19.99 24.47Z" fill="white"/>
</g>
<defs>
<filter id="filter0_d_1_21" x="0.612549" y="0.157578" width="139.807" height="160.972" filterUnits="userSpaceOnUse" color-interpolation-filters="sRGB">
<feFlood flood-opacity="0" result="BackgroundImageFix"/>
<feColorMatrix in="SourceAlpha" type="matrix" values="0 0 0 0 0 0 0 0 0 0 0 0 0 0 0 0 0 0 127 0" result="hardAlpha"/>
<feOffset dy="4"/>
<feGaussianBlur stdDeviation="2"/>
<feComposite in2="hardAlpha" operator="out"/>
<feColorMatrix type="matrix" values="0 0 0 0 0 0 0 0 0 0 0 0 0 0 0 0 0 0 0.25 0"/>
<feBlend mode="normal" in2="BackgroundImageFix" result="effect1_dropShadow_1_21"/>
<feBlend mode="normal" in="SourceGraphic" in2="effect1_dropShadow_1_21" result="shape"/>
</filter>
<linearGradient id="paint0_linear_1_21" x1="18.8276" y1="-0.0709797" x2="22.7359" y2="55.5418" gradientUnits="userSpaceOnUse">
<stop stop-color="#BD0926"/>
<stop offset="1" stop-color="#E1001A"/>
</linearGradient>
</defs>
</svg>
