<svg width="423" height="156" viewBox="0 0 423 156" fill="none" xmlns="http://www.w3.org/2000/svg">
<g style="mix-blend-mode:overlay">
<path d="M405.57 57.84L379.54 59.35L392.56 111.84H392.58L405.57 57.84Z" fill="#929E48"/>
</g>
<g style="mix-blend-mode:overlay">
<path d="M422.94 71.08L413.77 71.58L418.36 90.1H418.37L422.94 71.08Z" fill="#6F7434"/>
</g>
<g style="mix-blend-mode:overlay">
<path d="M324.4 16.78C325.22 23.21 322.5 29.67 317.26 33.58L326.39 54.08L320 56.93L310.94 36.6C309.47 36.98 307.97 37.19 306.46 37.19C306.15 37.19 305.85 37.16 305.54 37.15L300.35 57.85L334.81 155.78H334.84L370.2 9.45L324.4 16.78V16.78Z" fill="#B8CF5D"/>
</g>
<path d="M0.499985 62.97C0.499985 55.1 6.85998 50.24 14.73 50.24C22.6 50.24 28.85 55.1 28.85 62.97V78.1C28.85 86.03 22.49 90.88 14.73 90.88C6.96998 90.88 0.499985 86.02 0.499985 78.1V62.97V62.97ZM8.03998 77.43C8.03998 81.9 11 84.24 14.74 84.24C18.48 84.24 21.33 81.9 21.33 77.43V63.7C21.33 59.18 18.37 56.83 14.74 56.83C11.11 56.83 8.03998 59.17 8.03998 63.7V77.43Z" fill="#1B181C"/>
<path d="M44.64 63.81C46.37 61.97 49.39 60.52 52.12 60.52C59.15 60.52 61.83 64.43 61.83 71.8L61.77 78.89C61.77 86.2 57.58 90.67 50.5 90.67C48.71 90.67 46.42 90.28 44.97 89.78V98.49H37.83V61.09H44.03L44.64 63.82V63.81ZM54.63 72.35C54.63 68.55 53.51 66.88 50.44 66.88C48.32 66.88 46.25 68.33 44.97 69.89V83.56C46.25 84.17 48.04 84.45 49.77 84.45C53.01 84.45 54.57 82.33 54.63 78.25V72.33V72.35Z" fill="#1B181C"/>
<path d="M82.87 90.65C75.33 90.65 70.7 86.18 70.7 78.87V72.34C70.7 64.97 75.33 60.51 82.87 60.51C90.41 60.51 94.98 64.98 94.98 72.34V77.87H77.9V78.65C77.9 82.78 79.74 84.57 82.98 84.57C86.38 84.57 88.78 83.57 91.46 82.11L94.14 87.08C91.07 89.2 87.55 90.65 82.86 90.65H82.87ZM87.84 73.01V72.56C87.84 68.6 86.22 66.59 82.87 66.59C79.52 66.59 77.79 68.49 77.79 72.56V73.01H87.84Z" fill="#1B181C"/>
<path d="M103.97 61.07H110.17L110.78 63.8C112.57 61.96 115.58 60.51 118.37 60.51C125.12 60.51 127.69 64.42 127.69 71.12V90.1H120.55V71.85C120.55 68.45 119.55 66.88 116.47 66.88C114.46 66.88 112.4 68.28 111.11 69.89V90.1H103.91L103.97 61.08V61.07Z" fill="#1B181C"/>
<path d="M156.54 80.94C152.58 81.55 148.56 81.55 144.59 80.94L141.97 90.09H133.71L147.11 51.02H153.98L167.49 90.09H159.28L156.54 80.94ZM146.21 75.08C149.11 75.64 151.96 75.64 154.86 75.08L150.51 60.07L146.21 75.08V75.08Z" fill="#1B181C"/>
<path d="M173.79 66.82H171V61.07H174.13L175.41 55.54H180.99V61.07H188.64V66.82H180.99L180.93 79.82C180.93 83.34 181.71 84.68 184.67 84.68C185.67 84.68 187.13 84.51 188.02 84.29L189.08 89.93C187.52 90.38 185 90.71 183.27 90.71C176.13 90.71 173.78 87.75 173.78 80.38V66.82H173.79Z" fill="#1B181C"/>
<path d="M195.55 90.1V48.24H202.69V90.1H195.55Z" fill="#1B181C"/>
<path d="M235.07 90.1H229.04L228.65 87.37C226.98 89.27 223.74 90.66 220.56 90.66C214.98 90.66 211.02 88.09 211.02 82.29C211.02 76.09 214.82 73.81 221.51 73.81C223.63 73.81 225.81 74.09 227.93 74.59V71.63C227.93 67.89 226.14 66.72 222.63 66.72C219.12 66.72 216.83 67.56 214.76 68.62L212.58 63.54C215.26 62.03 219.28 60.53 223.97 60.53C231.51 60.53 235.13 64.27 235.08 71.25V90.12L235.07 90.1ZM222.18 85.08C224.64 85.08 226.7 83.74 227.93 81.9V79.22C226.09 78.77 224.3 78.61 222.46 78.61C219.73 78.61 218.27 79.22 218.27 81.85C218.27 84.25 219.78 85.09 222.18 85.09V85.08Z" fill="#1B181C"/>
<path d="M254.43 84.9C257.61 84.9 259.45 83.78 259.45 81.94C259.45 79.43 257.22 79.04 253.03 78.26C248.68 77.48 244.16 76.25 244.16 69.16C244.16 63.97 247.62 60.51 255.16 60.51C259.79 60.51 262.86 61.79 266.04 64.03L263.53 68.72C260.79 67.21 258.62 66.26 255.38 66.26C252.48 66.26 251.36 67.32 251.36 68.99C251.36 71.45 253.37 71.72 257 72.34C261.52 73.18 266.6 74.24 266.6 81.66C266.6 87.02 262.36 90.65 254.82 90.65C250.13 90.65 246.28 89.25 243.21 87.19L245.72 82.22C248.4 83.78 251.02 84.9 254.43 84.9V84.9Z" fill="#1B181C"/>
<path d="M71.55 134.93V104.19H82.13C87.93 104.19 91.53 107.92 91.53 113.85V125.27C91.53 131.2 87.93 134.93 82.13 134.93H71.55V134.93ZM75.24 131.46H82.13C85.82 131.46 87.84 129.13 87.84 124.7V114.42C87.84 110.03 85.82 107.66 82.13 107.66H75.24V131.46V131.46Z" fill="#1B181C"/>
<path d="M101.06 108.06C99.61 108.06 98.56 107.18 98.56 105.64C98.56 104.1 99.61 103.18 101.06 103.18C102.51 103.18 103.61 104.1 103.61 105.64C103.61 107.18 102.56 108.06 101.06 108.06ZM102.9 112.1V134.94H99.39V112.1H102.9Z" fill="#1B181C"/>
<path d="M118.31 132.3C121.78 132.3 123.45 130.5 123.45 128.61C123.45 126.41 121.91 125.49 118.53 124.92C114.45 124.26 110.62 123.51 110.62 118.07C110.62 114.42 113.12 111.66 118.53 111.66C122.04 111.66 124.37 112.8 126.57 114.38L125.12 116.84C123.23 115.65 121.3 114.73 118.58 114.73C115.29 114.73 114.14 116.18 114.14 118.07C114.14 120.88 116.29 121.28 119.41 121.76C123.36 122.38 126.88 123.34 126.92 128.52C126.96 132.21 123.89 135.37 118.4 135.37C114.71 135.37 111.77 134.05 109.88 132.65L111.33 130.15C113.09 131.34 115.46 132.3 118.31 132.3V132.3Z" fill="#1B181C"/>
<path d="M142.73 132.17C145.58 132.17 147.38 131.29 149.14 130.11L150.63 132.61C148.79 134.06 146.37 135.38 142.68 135.38C137.15 135.38 133.76 132 133.76 126.33V120.71C133.76 115.04 137.14 111.66 142.68 111.66C146.46 111.66 148.48 112.85 150.63 114.47L149.09 116.93C147.2 115.66 145.71 114.82 142.72 114.82C139.21 114.82 137.27 117.02 137.27 121.23V125.8C137.27 130.02 139.2 132.17 142.72 132.17H142.73Z" fill="#1B181C"/>
<path d="M157.96 120.71C157.96 115.04 161.39 111.66 166.88 111.66C172.37 111.66 175.79 115.04 175.79 120.71V126.38C175.79 132 172.37 135.38 166.88 135.38C161.39 135.38 157.96 131.96 157.96 126.38V120.71ZM161.47 125.85C161.47 130.02 163.4 132.17 166.87 132.17C170.34 132.17 172.27 130.02 172.27 125.85V121.2C172.27 117.03 170.38 114.88 166.87 114.88C163.36 114.88 161.47 117.03 161.47 121.2V125.85Z" fill="#1B181C"/>
<path d="M180.18 112.1H183.96L190.15 130.81L196.34 112.1H200.03L191.91 134.94H188.35L180.18 112.1V112.1Z" fill="#1B181C"/>
<path d="M213.46 135.37C207.97 135.37 204.54 131.99 204.54 126.32V120.7C204.54 115.03 207.97 111.65 213.46 111.65C218.95 111.65 222.37 115.03 222.37 120.7V124.56H208.05V125.88C208.05 130.1 210.03 132.2 213.5 132.2C216.35 132.2 218.64 131.28 220.39 130.09L221.88 132.59C220.04 134.04 217.14 135.36 213.45 135.36L213.46 135.37ZM218.86 121.76V121.15C218.86 117.02 216.97 114.87 213.46 114.87C209.95 114.87 208.06 116.98 208.06 121.15V121.76H218.86V121.76Z" fill="#1B181C"/>
<path d="M230.36 112.1H233.35L233.74 114.95C235.45 112.84 237.87 111.66 240.42 111.66L240.68 114.95C237.87 114.95 235.45 116.44 233.87 118.64V134.93H230.36V112.09V112.1Z" fill="#1B181C"/>
<path d="M252.63 134.19L244.42 112.1H248.2L254.39 129.89L260.58 112.1H264.27L256.15 134.01H256.11L253.39 141.61L249.75 141.57L252.65 134.19H252.63Z" fill="#1B181C"/>
<path d="M306.45 33.67C314.513 33.67 321.05 27.1334 321.05 19.07C321.05 11.0066 314.513 4.47 306.45 4.47C298.387 4.47 291.85 11.0066 291.85 19.07C291.85 27.1334 298.387 33.67 306.45 33.67Z" fill="white"/>
<path d="M327.5 53.5L317.26 33.57C323.9 28.62 326.49 19.57 322.99 11.7C318.93 2.57999 308.2 -1.53001 299.09 2.52999C294.67 4.49999 291.29 8.06999 289.55 12.58C287.82 17.09 287.95 22.01 289.92 26.43C291.89 30.85 295.46 34.23 299.97 35.96C302.08 36.77 304.27 37.17 306.46 37.17C307.97 37.17 309.47 36.96 310.94 36.58L319 57.5L327.5 53.5ZM302.47 29.43C299.7 28.37 297.51 26.29 296.31 23.58C295.1 20.87 295.02 17.85 296.09 15.09C297.15 12.32 299.23 10.13 301.94 8.92999C303.4 8.27999 304.93 7.96999 306.44 7.96999C310.69 7.96999 314.76 10.43 316.6 14.55C319.09 20.14 316.57 26.72 310.98 29.21C308.27 30.42 305.26 30.5 302.48 29.43H302.47Z" fill="url(#paint0_linear_9_7)"/>
<defs>
<linearGradient id="paint0_linear_9_7" x1="321.82" y1="53.3" x2="304.45" y2="14.62" gradientUnits="userSpaceOnUse">
<stop stop-color="#BE1622"/>
<stop offset="1" stop-color="#E30613"/>
</linearGradient>
</defs>
</svg>
