<svg xmlns="http://www.w3.org/2000/svg" fill="none" viewBox="0 0 423 156"><path fill="#929E48" d="m405.57 57.84-26.03 1.51 13.02 52.49h.02l12.99-54Z" style="mix-blend-mode:overlay"/><path fill="#6F7434" d="m422.94 71.08-9.17.5 4.59 18.52h.01l4.57-19.02Z" style="mix-blend-mode:overlay"/><path fill="#B8CF5D" d="M324.4 16.78c.82 6.43-1.9 12.89-7.14 16.8l9.13 20.5-6.39 2.85-9.06-20.33c-1.47.38-2.97.59-4.48.59-.31 0-.61-.03-.92-.04l-5.19 20.7 34.46 97.93h.03L370.2 9.45l-45.8 7.33Z" style="mix-blend-mode:overlay"/><path fill="#1B181C" d="M.5 62.97c0-7.87 6.36-12.73 14.23-12.73s14.12 4.86 14.12 12.73V78.1c0 7.93-6.36 12.78-14.12 12.78C6.97 90.88.5 86.02.5 78.1V62.97Zm7.54 14.46c0 4.47 2.96 6.81 6.7 6.81s6.59-2.34 6.59-6.81V63.7c0-4.52-2.96-6.87-6.59-6.87s-6.7 2.34-6.7 6.87v13.73Zm36.6-13.62c1.73-1.84 4.75-3.29 7.48-3.29 7.03 0 9.71 3.91 9.71 11.28l-.06 7.09c0 7.31-4.19 11.78-11.27 11.78-1.79 0-4.08-.39-5.53-.89v8.71h-7.14v-37.4h6.2l.61 2.73v-.01Zm9.99 8.54c0-3.8-1.12-5.47-4.19-5.47-2.12 0-4.19 1.45-5.47 3.01v13.67c1.28.61 3.07.89 4.8.89 3.24 0 4.8-2.12 4.86-6.2v-5.92.02Zm28.24 18.3c-7.54 0-12.17-4.47-12.17-11.78v-6.53c0-7.37 4.63-11.83 12.17-11.83s12.11 4.47 12.11 11.83v5.53H77.9v.78c0 4.13 1.84 5.92 5.08 5.92 3.4 0 5.8-1 8.48-2.46l2.68 4.97c-3.07 2.12-6.59 3.57-11.28 3.57h.01Zm4.97-17.64v-.45c0-3.96-1.62-5.97-4.97-5.97-3.35 0-5.08 1.9-5.08 5.97v.45h10.05Zm16.13-11.94h6.2l.61 2.73c1.79-1.84 4.8-3.29 7.59-3.29 6.75 0 9.32 3.91 9.32 10.61V90.1h-7.14V71.85c0-3.4-1-4.97-4.08-4.97-2.01 0-4.07 1.4-5.36 3.01V90.1h-7.2l.06-29.02v-.01Zm52.57 19.87c-3.96.61-7.98.61-11.95 0l-2.62 9.15h-8.26l13.4-39.07h6.87l13.51 39.07h-8.21l-2.74-9.15Zm-10.33-5.86c2.9.56 5.75.56 8.65 0l-4.35-15.01-4.3 15.01Zm27.58-8.26H171v-5.75h3.13l1.28-5.53h5.58v5.53h7.65v5.75h-7.65l-.06 13c0 3.52.78 4.86 3.74 4.86 1 0 2.46-.17 3.35-.39l1.06 5.64c-1.56.45-4.08.78-5.81.78-7.14 0-9.49-2.96-9.49-10.33V66.82h.01Zm21.76 23.28V48.24h7.14V90.1h-7.14Zm39.52 0h-6.03l-.39-2.73c-1.67 1.9-4.91 3.29-8.09 3.29-5.58 0-9.54-2.57-9.54-8.37 0-6.2 3.8-8.48 10.49-8.48 2.12 0 4.3.28 6.42.78v-2.96c0-3.74-1.79-4.91-5.3-4.91s-5.8.84-7.87 1.9l-2.18-5.08c2.68-1.51 6.7-3.01 11.39-3.01 7.54 0 11.16 3.74 11.11 10.72v18.87l-.01-.02Zm-12.89-5.02c2.46 0 4.52-1.34 5.75-3.18v-2.68c-1.84-.45-3.63-.61-5.47-.61-2.73 0-4.19.61-4.19 3.24 0 2.4 1.51 3.24 3.91 3.24v-.01Zm32.25-.18c3.18 0 5.02-1.12 5.02-2.96 0-2.51-2.23-2.9-6.42-3.68-4.35-.78-8.87-2.01-8.87-9.1 0-5.19 3.46-8.65 11-8.65 4.63 0 7.7 1.28 10.88 3.52l-2.51 4.69c-2.74-1.51-4.91-2.46-8.15-2.46-2.9 0-4.02 1.06-4.02 2.73 0 2.46 2.01 2.73 5.64 3.35 4.52.84 9.6 1.9 9.6 9.32 0 5.36-4.24 8.99-11.78 8.99-4.69 0-8.54-1.4-11.61-3.46l2.51-4.97c2.68 1.56 5.3 2.68 8.71 2.68ZM71.55 134.93v-30.74h10.58c5.8 0 9.4 3.73 9.4 9.66v11.42c0 5.93-3.6 9.66-9.4 9.66H71.55Zm3.69-3.47h6.89c3.69 0 5.71-2.33 5.71-6.76v-10.28c0-4.39-2.02-6.76-5.71-6.76h-6.89v23.8Zm25.82-23.4c-1.45 0-2.5-.88-2.5-2.42s1.05-2.46 2.5-2.46 2.55.92 2.55 2.46-1.05 2.42-2.55 2.42Zm1.84 4.04v22.84h-3.51V112.1h3.51Zm15.41 20.2c3.47 0 5.14-1.8 5.14-3.69 0-2.2-1.54-3.12-4.92-3.69-4.08-.66-7.91-1.41-7.91-6.85 0-3.65 2.5-6.41 7.91-6.41 3.51 0 5.84 1.14 8.04 2.72l-1.45 2.46c-1.89-1.19-3.82-2.11-6.54-2.11-3.29 0-4.44 1.45-4.44 3.34 0 2.81 2.15 3.21 5.27 3.69 3.95.62 7.47 1.58 7.51 6.76.04 3.69-3.03 6.85-8.52 6.85-3.69 0-6.63-1.32-8.52-2.72l1.45-2.5c1.76 1.19 4.13 2.15 6.98 2.15Zm24.42-.13c2.85 0 4.65-.88 6.41-2.06l1.49 2.5c-1.84 1.45-4.26 2.77-7.95 2.77-5.53 0-8.92-3.38-8.92-9.05v-5.62c0-5.67 3.38-9.05 8.92-9.05 3.78 0 5.8 1.19 7.95 2.81l-1.54 2.46c-1.89-1.27-3.38-2.11-6.37-2.11-3.51 0-5.45 2.2-5.45 6.41v4.57c0 4.22 1.93 6.37 5.45 6.37h.01Zm15.23-11.46c0-5.67 3.43-9.05 8.92-9.05s8.91 3.38 8.91 9.05v5.67c0 5.62-3.42 9-8.91 9s-8.92-3.42-8.92-9v-5.67Zm3.51 5.14c0 4.17 1.93 6.32 5.4 6.32 3.47 0 5.4-2.15 5.4-6.32v-4.65c0-4.17-1.89-6.32-5.4-6.32-3.51 0-5.4 2.15-5.4 6.32v4.65Zm18.71-13.75h3.78l6.19 18.71 6.19-18.71h3.69l-8.12 22.84h-3.56l-8.17-22.84Zm33.28 23.27c-5.49 0-8.92-3.38-8.92-9.05v-5.62c0-5.67 3.43-9.05 8.92-9.05s8.91 3.38 8.91 9.05v3.86h-14.32v1.32c0 4.22 1.98 6.32 5.45 6.32 2.85 0 5.14-.92 6.89-2.11l1.49 2.5c-1.84 1.45-4.74 2.77-8.43 2.77l.01.01Zm5.4-13.61v-.61c0-4.13-1.89-6.28-5.4-6.28-3.51 0-5.4 2.11-5.4 6.28v.61h10.8Zm11.5-9.66h2.99l.39 2.85c1.71-2.11 4.13-3.29 6.68-3.29l.26 3.29c-2.81 0-5.23 1.49-6.81 3.69v16.29h-3.51v-22.84.01Zm22.27 22.09-8.21-22.09h3.78l6.19 17.79 6.19-17.79h3.69l-8.12 21.91h-.04l-2.72 7.6-3.64-.04 2.9-7.38h-.02Z"/><path fill="#fff" d="M306.45 33.67c8.063 0 14.6-6.537 14.6-14.6 0-8.063-6.537-14.6-14.6-14.6-8.063 0-14.6 6.537-14.6 14.6 0 8.063 6.537 14.6 14.6 14.6Z"/><path fill="url(#a)" d="m327.5 53.5-10.24-19.93c6.64-4.95 9.23-14 5.73-21.87-4.06-9.12-14.79-13.23-23.9-9.17-4.42 1.97-7.8 5.54-9.54 10.05-1.73 4.51-1.6 9.43.37 13.85 1.97 4.42 5.54 7.8 10.05 9.53 2.11.81 4.3 1.21 6.49 1.21 1.51 0 3.01-.21 4.48-.59L319 57.5l8.5-4Zm-25.03-24.07a10.99 10.99 0 0 1-6.16-5.85 10.97 10.97 0 0 1-.22-8.49 10.99 10.99 0 0 1 5.85-6.16c1.46-.65 2.99-.96 4.5-.96 4.25 0 8.32 2.46 10.16 6.58 2.49 5.59-.03 12.17-5.62 14.66a10.993 10.993 0 0 1-8.5.22h-.01Z"/><defs><linearGradient id="a" x1="321.82" x2="304.45" y1="53.3" y2="14.62" gradientUnits="userSpaceOnUse"><stop stop-color="#BE1622"/><stop offset="1" stop-color="#E30613"/></linearGradient></defs></svg>